<svg xmlns="http://www.w3.org/2000/svg" id="Layer_2" viewBox="0 0 365.4 134.7"><defs><style>.cls-1{fill:#0077c0;}.cls-2{fill:#7f3f98;}.cls-3{fill:#231f20;}.cls-4{fill:#54575c;}</style></defs><g id="Layer_1-2"><g><path class="cls-3" d="m5.9,124.4h4.8l-2.3-6.7h-.1l-2.4,6.7Zm.9-9.4h2.9l6,15.6h-2.9l-1.5-4.1h-6.2l-1.5,4.1H.8l6-15.6Z"></path><path class="cls-3" d="m21.6,119.3h2.4v1.6h.1c.2-.3.4-.5.6-.8.2-.2.5-.4.7-.6.3-.2.6-.3.9-.4.3-.1.8-.1,1.2-.1.7,0,1.3.2,1.9.5s1,.8,1.3,1.4c.4-.6.9-1,1.5-1.4.6-.3,1.2-.5,2.1-.5,1.2,0,2.1.3,2.8.9.7.6,1,1.6,1,2.9v7.8h-2.6v-7.8c0-.4-.1-.7-.3-1-.1-.3-.3-.5-.6-.6-.3-.1-.7-.2-1.1-.2-.8,0-1.5.3-1.8.8-.4.5-.6,1.3-.6,2.2v6.6h-2.5v-7.3c0-.8-.1-1.4-.4-1.8-.3-.4-.8-.6-1.6-.6-.3,0-.6.1-.9.2-.3.1-.6.3-.8.6-.2.2-.4.6-.5.9-.1.4-.2.8-.2,1.2v6.7h-2.5v-11.2h-.1Z"></path><path class="cls-3" d="m48.4,123.9c0-.4-.1-.8-.3-1.1-.1-.4-.3-.7-.6-1-.2-.3-.5-.5-.9-.7-.3-.2-.7-.3-1.1-.3s-.8.1-1.2.2c-.4.2-.7.4-.9.6-.3.3-.5.6-.6,1-.2.4-.2.8-.2,1.2h5.8v.1Zm-5.8,1.7c0,.4.1.9.2,1.3.1.4.3.8.6,1.1.2.3.6.5.9.7.4.2.8.3,1.4.3.7,0,1.3-.2,1.8-.5.4-.3.8-.8,1-1.4h2.4c-.1.6-.4,1.2-.7,1.6-.3.5-.7.9-1.2,1.2s-1,.6-1.5.7c-.6.2-1.1.2-1.8.2-.9,0-1.7-.1-2.4-.4-.7-.3-1.3-.7-1.7-1.2-.5-.5-.8-1.2-1.1-1.9-.2-.7-.4-1.5-.4-2.4,0-.8.1-1.6.4-2.3s.6-1.4,1.1-1.9,1-1,1.7-1.3,1.4-.5,2.3-.5,1.7.2,2.4.6c.7.4,1.3.9,1.8,1.5s.8,1.3,1,2.1.3,1.6.2,2.5h-8.4Z"></path><path class="cls-3" d="m52.8,119.3h2.4v1.6h.1c.2-.3.4-.5.6-.8.2-.2.5-.4.7-.6.3-.2.6-.3.9-.4.4-.1.8-.1,1.2-.1.7,0,1.3.2,1.9.5.6.3,1,.8,1.3,1.4.4-.6.9-1,1.5-1.4.6-.3,1.2-.5,2.1-.5,1.2,0,2.1.3,2.8.9.7.6,1,1.6,1,2.9v7.8h-2.5v-7.8c0-.4-.1-.7-.3-1-.1-.3-.3-.5-.6-.6s-.7-.2-1.1-.2c-.8,0-1.5.3-1.8.8-.4.5-.6,1.3-.6,2.2v6.6h-2.5v-7.3c0-.8-.1-1.4-.4-1.8-.3-.4-.8-.6-1.6-.6-.3,0-.6.1-.9.2-.3.1-.6.3-.8.6-.2.2-.4.6-.5.9-.1.4-.2.8-.2,1.2v6.7h-2.5v-11.2h-.2Z"></path><path class="cls-3" d="m80.5,124.9c0-.5-.1-1-.2-1.5-.1-.5-.3-.9-.6-1.3-.3-.4-.6-.7-1-.9s-.8-.3-1.4-.3c-1,0-1.8.4-2.4,1.1-.5.7-.8,1.7-.8,2.9,0,.6.1,1.1.2,1.6.1.5.3.9.6,1.3.3.3.6.6,1,.8s.8.3,1.3.3c.6,0,1-.1,1.4-.3s.7-.5,1-.9.4-.8.5-1.3c.4-.5.4-1,.4-1.5m-8.7-9.9h2.5v5.8h0c.2-.3.4-.5.6-.7.2-.2.5-.4.8-.6.3-.2.6-.3.9-.3.3-.1.7-.1,1-.1.9,0,1.7.2,2.3.5.7.3,1.2.7,1.6,1.3.4.5.8,1.2,1,1.9s.3,1.5.3,2.3-.1,1.5-.3,2.2-.5,1.3-.9,1.9c-.4.5-.9,1-1.5,1.3s-1.3.5-2.2.5c-.4,0-.8,0-1.1-.1-.4-.1-.8-.1-1.1-.3-.3-.1-.7-.3-.9-.6s-.5-.5-.7-.9h0v1.6h-2.4v-15.7h.1Z"></path><path class="cls-3" d="m92.9,123.9c0-.4-.1-.8-.3-1.1-.1-.4-.3-.7-.6-1-.2-.3-.5-.5-.9-.7-.3-.2-.7-.3-1.1-.3s-.8.1-1.2.2c-.4.2-.7.4-.9.6-.3.3-.5.6-.6,1-.2.4-.2.8-.2,1.2h5.8v.1Zm-5.8,1.7c0,.4.1.9.2,1.3.1.4.3.8.6,1.1.2.3.6.5.9.7.4.2.8.3,1.4.3.7,0,1.3-.2,1.8-.5.4-.3.8-.8,1-1.4h2.4c-.1.6-.4,1.2-.7,1.6-.3.5-.7.9-1.2,1.2s-1,.6-1.5.7c-.6.2-1.1.2-1.8.2-.9,0-1.7-.1-2.4-.4-.7-.3-1.3-.7-1.7-1.2-.5-.5-.8-1.2-1.1-1.9-.2-.7-.4-1.5-.4-2.4,0-.8.1-1.6.4-2.3.3-.7.6-1.4,1.1-1.9s1-1,1.7-1.3,1.4-.5,2.3-.5,1.7.2,2.4.6c.7.4,1.3.9,1.8,1.5s.8,1.3,1,2.1.3,1.6.2,2.5h-8.4Z"></path><path class="cls-3" d="m97.3,119.3h2.3v2.2h0c.1-.3.2-.6.4-.9.2-.3.5-.6.8-.8s.6-.4,1-.6c.4-.1.7-.2,1.1-.2h.9v2.4c-.2,0-.4-.1-.5-.1h-.5c-.4,0-.8.1-1.2.3s-.7.4-1,.7-.5.7-.7,1.2-.2,1-.2,1.7v5.4h-2.5v-11.3h.1Z"></path><path class="cls-3" d="m114.2,128.9c.6,0,1-.1,1.4-.3s.7-.5,1-.9.5-.8.6-1.3.2-1,.2-1.5-.1-1-.2-1.4c-.1-.5-.3-.9-.6-1.3-.3-.4-.6-.7-1-.9s-.9-.3-1.4-.3c-.6,0-1,.1-1.4.3s-.7.5-1,.9-.5.8-.6,1.3-.2,1-.2,1.4c0,.5.1,1,.2,1.5.1.5.3.9.6,1.3.3.4.6.7,1,.9s.9.3,1.4.3m0,2c-.9,0-1.7-.1-2.4-.4-.7-.3-1.3-.7-1.8-1.2s-.9-1.1-1.1-1.9c-.3-.7-.4-1.5-.4-2.4s.1-1.7.4-2.4c.3-.7.6-1.4,1.1-1.9s1.1-.9,1.8-1.2,1.5-.4,2.4-.4,1.7.2,2.4.4c.7.3,1.3.7,1.8,1.2s.9,1.1,1.1,1.9c.3.7.4,1.5.4,2.4s-.1,1.7-.4,2.4c-.3.7-.6,1.4-1.1,1.9s-1.1.9-1.8,1.2c-.7.2-1.5.4-2.4.4"></path><path class="cls-3" d="m120.9,119.3h1.9v-.9c0-.7.1-1.3.3-1.7s.4-.8.7-1,.6-.4,1-.5.8-.1,1.2-.1c.8,0,1.4.1,1.7.2v1.9c-.2,0-.3-.1-.5-.1h-.6c-.3,0-.6.1-.9.2-.2.2-.4.5-.4.9v1.2h2.1v1.9h-2.1v9.4h-2.5v-9.4h-1.9v-2Z"></path><path class="cls-3" d="m133.2,119.3h1.9v-3.4h2.5v3.4h2.2v1.9h-2.2v6.7c0,.2.1.4.2.5.1.1.2.2.4.3s.4.1.7.1h.5c.2,0,.3,0,.5-.1v1.9c-.3,0-.5.1-.8.1h-.8c-.7,0-1.2-.1-1.6-.2-.4-.1-.7-.3-.9-.5s-.4-.5-.5-.9-.1-.8-.1-1.2v-6.7h-1.9v-1.9h-.1Z"></path><path class="cls-3" d="m141.6,115h2.5v5.8h0c.3-.5.8-.9,1.4-1.3.6-.3,1.3-.5,2-.5,1.2,0,2.2.3,2.9,1,.7.6,1.1,1.6,1.1,2.9v7.8h-2.5v-7.1c0-.9-.2-1.5-.6-1.9-.3-.4-.9-.6-1.6-.6-.4,0-.8.1-1.1.2-.3.2-.6.4-.9.6-.2.3-.4.6-.5,1s-.2.8-.2,1.2v6.7h-2.5v-15.8h0Z"></path><path class="cls-3" d="m161.9,123.9c0-.4-.1-.8-.3-1.1-.1-.4-.3-.7-.6-1-.2-.3-.5-.5-.9-.7-.3-.2-.7-.3-1.1-.3s-.8.1-1.2.2c-.4.2-.7.4-.9.6-.3.3-.5.6-.6,1-.2.4-.2.8-.2,1.2h5.8v.1Zm-5.8,1.7c0,.4.1.9.2,1.3.1.4.3.8.6,1.1.2.3.6.5.9.7.4.2.8.3,1.4.3.7,0,1.3-.2,1.8-.5.4-.3.8-.8,1-1.4h2.4c-.1.6-.4,1.2-.7,1.6-.3.5-.7.9-1.2,1.2s-1,.6-1.5.7c-.6.2-1.1.2-1.8.2-.9,0-1.7-.1-2.4-.4-.7-.3-1.3-.7-1.7-1.2-.5-.5-.8-1.2-1.1-1.9-.2-.7-.4-1.5-.4-2.4,0-.8.1-1.6.4-2.3.3-.7.6-1.4,1.1-1.9s1-1,1.7-1.3,1.4-.5,2.3-.5,1.7.2,2.4.6c.7.4,1.3.9,1.8,1.5s.8,1.3,1,2.1.3,1.6.2,2.5h-8.4Z"></path><path class="cls-3" d="m174.7,124.4h4.8l-2.3-6.7h-.1l-2.4,6.7Zm1-9.4h2.9l6,15.6h-2.9l-1.5-4.1h-6.2l-1.5,4.1h-2.8l6-15.6Z"></path><path class="cls-3" d="m187.6,126.9c.1.7.3,1.2.8,1.5s1.1.4,1.7.4c.2,0,.5,0,.8-.1.3,0,.6-.1.8-.2.3-.1.5-.2.6-.4.2-.2.2-.5.2-.8s-.1-.6-.3-.8c-.2-.2-.5-.4-.8-.5s-.7-.2-1.2-.3-.9-.2-1.3-.3c-.5-.1-.9-.2-1.3-.4-.4-.1-.8-.3-1.2-.6-.3-.2-.6-.6-.8-.9-.2-.4-.3-.9-.3-1.4,0-.6.1-1.1.4-1.5s.7-.8,1.1-1c.5-.3,1-.4,1.5-.5.6-.1,1.1-.2,1.6-.2.6,0,1.1.1,1.7.2.5.1,1,.3,1.4.6s.8.6,1.1,1.1c.3.4.5,1,.5,1.6h-2.6c-.1-.6-.4-1-.8-1.2s-.9-.3-1.5-.3h-.6c-.2,0-.5.1-.7.2-.2.1-.4.2-.5.4s-.2.4-.2.6c0,.3.1.6.3.7.2.2.5.3.8.5.3.1.7.2,1.2.3.4.1.9.2,1.4.3s.9.2,1.3.4c.4.1.8.3,1.2.6.3.2.6.6.8.9.2.4.3.8.3,1.4,0,.7-.2,1.2-.5,1.7s-.7.8-1.2,1.1-1,.5-1.6.6-1.2.2-1.8.2c-.7,0-1.4-.1-2-.2-.6-.2-1.1-.4-1.6-.7-.4-.3-.8-.7-1-1.2-.3-.5-.4-1.1-.4-1.7h2.7v-.1Z"></path><path class="cls-3" d="m196,119.3h1.9v-3.4h2.5v3.4h2.2v1.9h-2.2v6.7c0,.2.1.4.2.5s.2.2.4.3c.2.1.4.1.7.1h.5c.2,0,.3,0,.5-.1v1.9c-.3,0-.5.1-.8.1h-.8c-.7,0-1.2-.1-1.6-.2-.4-.1-.7-.3-.9-.5-.2-.2-.4-.5-.5-.9s-.1-.8-.1-1.2v-6.7h-1.9v-1.9h-.1Z"></path><path class="cls-3" d="m204.4,119.3h2.3v2.2h0c.1-.3.2-.6.4-.9.2-.3.5-.6.8-.8s.6-.4,1-.6c.4-.1.7-.2,1.1-.2h.9v2.4c-.2,0-.4-.1-.5-.1h-.5c-.4,0-.8.1-1.2.3-.4.2-.7.4-1,.7s-.5.7-.7,1.2-.2,1-.2,1.7v5.4h-2.5v-11.3h.1Z"></path><path class="cls-3" d="m219,124.9c-.4.2-.8.4-1.4.4-.6.1-1.1.1-1.7.2-.3,0-.5.1-.8.2-.2.1-.5.2-.7.3s-.3.3-.5.5c-.1.2-.2.5-.2.8s.1.5.2.7c.2.2.4.3.6.4.2.1.5.2.7.2.3,0,.5.1.7.1.3,0,.6,0,.9-.1s.6-.2.9-.4.5-.4.7-.7.3-.6.3-1v-1.6h.3Zm2.5,3.2c0,.3,0,.5.1.7.1.1.2.2.5.2h.6v1.7c-.1,0-.2.1-.3.1s-.3.1-.4.1-.3.1-.4.1h-.4c-.5,0-.9-.1-1.3-.3-.3-.2-.6-.6-.7-1.1-.5.5-1.1.8-1.8,1-.7.2-1.4.3-2.1.3-.5,0-1-.1-1.5-.2-.5-.1-.9-.3-1.2-.6-.4-.3-.6-.6-.9-1-.2-.4-.3-.9-.3-1.5,0-.7.1-1.3.4-1.7s.6-.8,1-1,.9-.4,1.4-.5,1-.2,1.6-.3c.5-.1.9-.1,1.3-.2.4,0,.8-.1,1.1-.2.3-.1.6-.2.7-.4.2-.2.3-.5.3-.8s-.1-.6-.2-.8c-.2-.2-.3-.4-.6-.5-.2-.1-.5-.2-.8-.2s-.5-.1-.8-.1c-.7,0-1.3.1-1.7.4-.5.3-.7.7-.8,1.4h-2.5c0-.7.2-1.3.5-1.8s.7-.9,1.2-1.2,1-.5,1.6-.6,1.2-.2,1.8-.2,1.1.1,1.6.2c.5.1,1,.3,1.5.6.4.3.8.6,1,1,.3.4.4.9.4,1.5v5.9h.1Z"></path><polygon class="cls-3" points="224.6 115 236.5 115 236.5 117 227.4 128.2 236.7 128.2 236.7 130.6 223.9 130.6 223.9 128.3 233 117.3 224.6 117.3 224.6 115"></polygon><path class="cls-3" d="m245.9,123.9c0-.4-.1-.8-.3-1.1-.1-.4-.3-.7-.6-1-.2-.3-.5-.5-.9-.7-.3-.2-.7-.3-1.1-.3s-.8.1-1.2.2c-.4.2-.7.4-.9.6-.3.3-.5.6-.6,1-.2.4-.2.8-.2,1.2h5.8v.1Zm-5.8,1.7c0,.4.1.9.2,1.3.1.4.3.8.6,1.1.2.3.6.5.9.7.4.2.8.3,1.4.3.7,0,1.3-.2,1.8-.5.4-.3.8-.8,1-1.4h2.4c-.1.6-.4,1.2-.7,1.6-.3.5-.7.9-1.2,1.2s-1,.6-1.5.7c-.6.2-1.1.2-1.8.2-.9,0-1.7-.1-2.4-.4-.7-.3-1.3-.7-1.7-1.2-.5-.5-.8-1.2-1.1-1.9-.2-.7-.4-1.5-.4-2.4,0-.8.1-1.6.4-2.3s.6-1.4,1.1-1.9,1-1,1.7-1.3,1.4-.5,2.3-.5,1.7.2,2.4.6c.7.4,1.3.9,1.8,1.5s.8,1.3,1,2.1.3,1.6.2,2.5h-8.4Z"></path><path class="cls-3" d="m250.3,119.3h2.4v1.7h0c.4-.6.9-1.1,1.5-1.5s1.3-.5,2-.5c1.2,0,2.2.3,2.9,1,.7.6,1.1,1.6,1.1,2.9v7.8h-2.5v-7.1c0-.9-.2-1.5-.6-1.9-.3-.4-.9-.6-1.6-.6-.4,0-.8.1-1.1.2-.3.2-.6.4-.9.6-.2.3-.4.6-.5.9-.1.4-.2.8-.2,1.2v6.7h-2.5v-11.4h0Z"></path><path class="cls-3" d="m270.6,123.9c0-.4-.1-.8-.3-1.1-.1-.4-.3-.7-.6-1-.2-.3-.5-.5-.9-.7-.3-.2-.7-.3-1.1-.3s-.8.1-1.2.2c-.4.2-.7.4-.9.6-.3.3-.5.6-.6,1-.2.4-.2.8-.2,1.2h5.8v.1Zm-5.8,1.7c0,.4.1.9.2,1.3.1.4.3.8.6,1.1.2.3.6.5.9.7.4.2.8.3,1.4.3.7,0,1.3-.2,1.8-.5.4-.3.8-.8,1-1.4h2.4c-.1.6-.4,1.2-.7,1.6-.3.5-.7.9-1.2,1.2s-1,.6-1.5.7c-.6.2-1.1.2-1.8.2-.9,0-1.7-.1-2.4-.4-.7-.3-1.3-.7-1.7-1.2-.5-.5-.8-1.2-1.1-1.9-.2-.7-.4-1.5-.4-2.4,0-.8.1-1.6.4-2.3s.6-1.4,1.1-1.9,1-1,1.7-1.3,1.4-.5,2.3-.5,1.7.2,2.4.6c.7.4,1.3.9,1.8,1.5s.8,1.3,1,2.1.3,1.6.2,2.5h-8.4Z"></path><path class="cls-3" d="m282.6,123.1c-.1-.7-.4-1.2-.8-1.6-.5-.4-1-.5-1.7-.5-.3,0-.7.1-1,.2-.4.1-.7.3-1,.6s-.6.7-.8,1.2c-.2.5-.3,1.2-.3,2.1,0,.5.1.9.2,1.4s.3.9.5,1.2c.2.4.5.7.9.9s.8.3,1.4.3c.7,0,1.3-.2,1.8-.7s.8-1.1.9-1.9h2.5c-.2,1.5-.8,2.6-1.7,3.4-.9.8-2.1,1.2-3.5,1.2-.9,0-1.7-.1-2.3-.4-.7-.3-1.2-.7-1.7-1.2s-.8-1.1-1.1-1.8c-.2-.7-.4-1.5-.4-2.3s.1-1.6.3-2.4c.2-.7.6-1.4,1-1.9.5-.5,1-1,1.7-1.3s1.5-.5,2.4-.5c.7,0,1.3.1,1.9.3s1.1.4,1.6.8c.5.3.8.8,1.1,1.3.3.5.5,1.1.5,1.8h-2.4v-.2Z"></path><path class="cls-3" d="m294.1,124.9c-.4.2-.8.4-1.4.4-.6.1-1.1.1-1.7.2-.3,0-.5.1-.8.2-.2.1-.5.2-.7.3s-.3.3-.5.5c-.1.2-.2.5-.2.8s.1.5.2.7c.2.2.4.3.6.4.2.1.5.2.7.2.3,0,.5.1.7.1.3,0,.6,0,.9-.1s.6-.2.9-.4.5-.4.7-.7.3-.6.3-1v-1.6h.3Zm2.5,3.2c0,.3,0,.5.1.7.1.1.2.2.5.2h.6v1.7c-.1,0-.2.1-.3.1s-.3.1-.4.1-.3.1-.4.1h-.4c-.5,0-.9-.1-1.3-.3-.3-.2-.6-.6-.7-1.1-.5.5-1.1.8-1.8,1-.7.2-1.4.3-2.1.3-.5,0-1-.1-1.5-.2-.5-.1-.9-.3-1.2-.6-.4-.3-.6-.6-.9-1-.2-.4-.3-.9-.3-1.5,0-.7.1-1.3.4-1.7s.6-.8,1-1,.9-.4,1.4-.5,1-.2,1.6-.3c.5-.1.9-.1,1.3-.2.4,0,.8-.1,1.1-.2.3-.1.6-.2.7-.4.2-.2.3-.5.3-.8s-.1-.6-.2-.8c-.2-.2-.3-.4-.6-.5-.2-.1-.5-.2-.8-.2s-.5-.1-.8-.1c-.7,0-1.3.1-1.7.4-.5.3-.7.7-.8,1.4h-2.5c0-.7.2-1.3.5-1.8s.7-.9,1.2-1.2,1-.5,1.6-.6,1.2-.2,1.8-.2,1.1.1,1.6.2c.5.1,1,.3,1.5.6.4.3.8.6,1,1,.3.4.4.9.4,1.5v5.9h.1Z"></path><path class="cls-3" d="m318,130.6h-1.7l-.4-1.8c-.7.8-1.5,1.4-2.2,1.7s-1.6.5-2.5.5c-1.2,0-2.2-.2-3.1-.6-.9-.4-1.7-1-2.3-1.8-.6-.7-1.1-1.6-1.5-2.6-.3-1-.5-2-.5-3.2,0-1.1.2-2.2.5-3.1.3-1,.8-1.9,1.5-2.6.6-.7,1.4-1.3,2.3-1.8.9-.4,2-.7,3.1-.7.8,0,1.6.1,2.4.3s1.4.6,2,1,1.1,1,1.5,1.7.6,1.4.7,2.3h-2.7c-.1-.5-.2-1-.5-1.3-.2-.4-.5-.7-.9-1s-.8-.5-1.2-.6c-.5-.1-.9-.2-1.4-.2-.8,0-1.5.2-2.2.5-.6.3-1.1.8-1.5,1.3-.4.6-.7,1.2-.8,1.9-.2.7-.3,1.4-.3,2.2,0,.7.1,1.5.3,2.2.2.7.5,1.4.8,1.9.4.6.9,1,1.5,1.3s1.3.5,2.2.5c.7,0,1.3-.1,1.9-.3.5-.2,1-.5,1.4-.9s.7-.8.8-1.4c.2-.5.3-1.1.3-1.8h-4.2v-1.8h6.6v8.2h.1Z"></path><path class="cls-3" d="m320.6,119.3h2.3v2.2h0c.1-.3.2-.6.4-.9.2-.3.5-.6.8-.8s.6-.4,1-.6c.4-.1.7-.2,1.1-.2h.9v2.4c-.2,0-.4-.1-.5-.1h-.5c-.4,0-.8.1-1.2.3-.4.2-.7.4-1,.7s-.5.7-.7,1.2-.2,1-.2,1.7v5.4h-2.5v-11.3h.1Z"></path><path class="cls-3" d="m333.1,128.9c.6,0,1-.1,1.4-.3s.7-.5,1-.9.5-.8.6-1.3.2-1,.2-1.5-.1-1-.2-1.4c-.1-.5-.3-.9-.6-1.3-.3-.4-.6-.7-1-.9s-.9-.3-1.4-.3c-.6,0-1,.1-1.4.3s-.7.5-1,.9-.5.8-.6,1.3-.2,1-.2,1.4c0,.5.1,1,.2,1.5s.3.9.6,1.3c.3.4.6.7,1,.9s.9.3,1.4.3m0,2c-.9,0-1.7-.1-2.4-.4-.7-.3-1.3-.7-1.8-1.2s-.9-1.1-1.1-1.9c-.3-.7-.4-1.5-.4-2.4s.1-1.7.4-2.4.6-1.4,1.1-1.9,1.1-.9,1.8-1.2c.7-.3,1.5-.4,2.4-.4s1.7.2,2.4.4c.7.3,1.3.7,1.8,1.2s.9,1.1,1.1,1.9c.3.7.4,1.5.4,2.4s-.1,1.7-.4,2.4-.6,1.4-1.1,1.9-1.1.9-1.8,1.2c-.7.2-1.5.4-2.4.4"></path><path class="cls-3" d="m350.8,130.6h-2.4v-1.6h0c-.3.6-.8,1-1.4,1.4-.6.3-1.2.5-1.8.5-1.5,0-2.6-.4-3.2-1.1-.7-.7-1-1.8-1-3.3v-7.2h2.5v6.9c0,1,.2,1.7.6,2.1.4.4.9.6,1.6.6.5,0,1-.1,1.3-.2.4-.2.6-.4.9-.6.2-.3.4-.6.5-1s.1-.8.1-1.2v-6.6h2.5v11.3h-.2Z"></path><path class="cls-3" d="m362.2,124.9c0-.5-.1-1-.2-1.5s-.3-.9-.6-1.3c-.3-.4-.6-.7-1-.9s-.8-.3-1.4-.3c-1,0-1.8.4-2.4,1.1-.5.7-.8,1.7-.8,2.9,0,.6.1,1.1.2,1.6s.3.9.6,1.3c.3.3.6.6,1,.8s.8.3,1.3.3c.6,0,1-.1,1.4-.4.4-.2.7-.5,1-.9s.4-.8.5-1.3c.3-.4.4-.9.4-1.4m-8.7-5.6h2.4v1.5h0c.3-.7.8-1.1,1.5-1.4.6-.3,1.3-.4,2-.4.9,0,1.7.2,2.3.5.7.3,1.2.7,1.6,1.3.4.5.8,1.2,1,1.9s.3,1.5.3,2.3-.1,1.5-.3,2.2c-.2.7-.5,1.3-.9,1.9-.4.5-.9,1-1.5,1.3s-1.3.5-2.2.5c-.4,0-.7,0-1.1-.1s-.7-.2-1-.3-.6-.3-.9-.6c-.3-.2-.5-.5-.7-.8h0v5.6h-2.5v-15.4Z"></path><rect class="cls-3" x=".9" y="100.8" width="363.8" height="1.4"></rect></g><g><path class="cls-4" d="m233.6,89.6v-10.1h-3.6v-1.3h8.7v1.3h-3.6v10.1h-1.5Z"></path><path class="cls-4" d="m249.9,89.6v-5.2h-6.7v5.2h-1.4v-11.4h1.4v4.9h6.7v-4.9h1.4v11.4h-1.4Z"></path><path class="cls-4" d="m255.3,89.6v-11.4h7.5v1.3h-6.1v3.7h5.9v1.3h-5.9v3.9h6.1v1.3h-7.5v-.1Z"></path><path class="cls-4" d="m272.9,89.6l-2.9-4.5h-2.3v4.5h-1.4v-11.4h4.6c2.1,0,3.6,1.3,3.6,3.4s-1.4,3.2-3,3.3l3.1,4.7h-1.7Zm.1-7.9c0-1.3-.9-2.2-2.3-2.2h-3v4.4h3c1.4,0,2.3-1,2.3-2.2Z"></path><path class="cls-4" d="m286.2,89.6l-1-2.5h-5.7l-1,2.5h-1.6l4.6-11.4h1.8l4.6,11.4h-1.7Zm-3.9-9.9l-2.4,6.2h4.8l-2.4-6.2Z"></path><path class="cls-4" d="m290.6,89.6v-11.4h4.6c2.3,0,3.6,1.6,3.6,3.4s-1.3,3.4-3.6,3.4h-3.2v4.5h-1.4v.1Zm6.7-7.9c0-1.3-.9-2.2-2.3-2.2h-3v4.3h3c1.3,0,2.3-.9,2.3-2.1Z"></path><path class="cls-4" d="m301.9,89.6v-11.4h7.5v1.3h-6.1v3.7h5.9v1.3h-5.9v3.9h6.1v1.3h-7.5v-.1Z"></path><path class="cls-4" d="m312.9,85.2v-7h1.4v6.9c0,2.1,1.1,3.4,3.2,3.4s3.2-1.3,3.2-3.4v-6.9h1.4v7c0,2.8-1.6,4.7-4.7,4.7-2.9-.1-4.5-1.9-4.5-4.7Z"></path><path class="cls-4" d="m329,89.6v-10.1h-3.6v-1.3h8.7v1.3h-3.6v10.1h-1.5Z"></path><path class="cls-4" d="m337.2,89.6v-11.4h1.4v11.4h-1.4Z"></path><path class="cls-4" d="m342.1,83.9c0-3.5,2.6-5.9,5.9-5.9,2,0,3.4,1,4.3,2.3l-1.2.7c-.6-1-1.8-1.7-3.1-1.7-2.5,0-4.4,1.9-4.4,4.6s1.9,4.6,4.4,4.6c1.3,0,2.5-.7,3.1-1.7l1.2.7c-1,1.3-2.3,2.3-4.3,2.3-3.3,0-5.9-2.4-5.9-5.9Z"></path><path class="cls-4" d="m354.8,88l.9-1.1c.7.9,2,1.6,3.6,1.6,2,0,2.7-1.1,2.7-2,0-2.9-6.8-1.3-6.8-5.4,0-1.9,1.7-3.2,3.9-3.2,1.7,0,3.1.6,4,1.6l-.9,1c-.9-1-2.1-1.4-3.3-1.4-1.4,0-2.3.7-2.3,1.8,0,2.6,6.8,1.1,6.8,5.4,0,1.6-1.1,3.4-4.2,3.4-2,.1-3.5-.6-4.4-1.7Z"></path></g><g><path class="cls-4" d="m29,63v-27.6c0-7.9-4.2-10.2-10.4-10.2-5.5,0-11.2,3.3-14,7v30.8H0V22.2h4.6v6.2c3.1-3.5,9.3-7.2,15.5-7.2,8.7,0,13.5,4.1,13.5,13.3v28.5h-4.6Z"></path><path class="cls-4" d="m43.8,42.6c0-11.8,8.7-21.4,20.6-21.4,13.1,0,20.3,9.8,20.3,21.6v1.2h-36c.4,8.9,6.7,16.2,16.8,16.2,5.4,0,10.4-1.9,14.1-5.7l2.4,2.9c-4.3,4.2-9.7,6.6-16.8,6.6-12.5,0-21.4-8.9-21.4-21.4Zm20.6-17.6c-10.1,0-15.2,8.4-15.6,15.5h31.2c0-6.9-4.8-15.5-15.6-15.5Z"></path><path class="cls-4" d="m92.5,42.6c0-11.9,8-21.4,20.6-21.4s20.7,9.5,20.7,21.4-8,21.4-20.7,21.4-20.6-9.5-20.6-21.4Zm36.3,0c0-9-5.6-17.4-15.8-17.4s-15.7,8.4-15.7,17.4,5.7,17.5,15.7,17.5c10.2-.1,15.8-8.4,15.8-17.5Z"></path><path class="cls-4" d="m181.3,73.4l2.7-3.5c3.7,4.2,7.8,5.7,14.3,5.7,7.7,0,14.6-3.7,14.6-12.9v-6.5c-3,4.2-8.5,7.7-15,7.7-11.4,0-19.1-8.2-19.1-21.3s7.7-21.4,19.1-21.4c6.1,0,11.5,3,15,7.6v-6.6h4.7v40.4c0,12.4-8.9,16.9-19.3,16.9-7.3,0-11.9-1.2-17-6.1Zm31.6-21v-19.8c-2.5-4-8.2-7.4-14.2-7.4-9.5,0-15,7.5-15,17.4s5.5,17.3,15,17.3c6,0,11.7-3.5,14.2-7.5Z"></path><path class="cls-4" d="m229.6,42.6c0-11.8,8.7-21.4,20.6-21.4,13.1,0,20.3,9.8,20.3,21.6v1.2h-36c.4,8.9,6.7,16.2,16.8,16.2,5.4,0,10.4-1.9,14.1-5.7l2.4,2.9c-4.3,4.2-9.7,6.6-16.8,6.6-12.5,0-21.4-8.9-21.4-21.4Zm20.5-17.6c-10.1,0-15.2,8.4-15.6,15.5h31.2c0-6.9-4.8-15.5-15.6-15.5Z"></path><path class="cls-4" d="m309.7,63v-27.6c0-7.9-4.2-10.2-10.4-10.2-5.5,0-11.2,3.3-14,7v30.8h-4.6V22.2h4.6v6.2c3.1-3.5,9.3-7.2,15.5-7.2,8.7,0,13.5,4.1,13.5,13.3v28.5h-4.6Z"></path><path class="cls-4" d="m324.5,42.6c0-11.8,8.7-21.4,20.6-21.4,13.1,0,20.3,9.8,20.3,21.6v1.2h-36c.4,8.9,6.7,16.2,16.8,16.2,5.4,0,10.4-1.9,14.1-5.7l2.4,2.9c-4.3,4.2-9.7,6.6-16.8,6.6-12.5,0-21.4-8.9-21.4-21.4Zm20.6-17.6c-10.1,0-15.2,8.4-15.6,15.5h31.2c0-6.9-4.8-15.5-15.6-15.5Z"></path></g><g><ellipse class="cls-1" cx="158.49" cy="20.9" rx="2.4" ry="2.3" transform="translate(-1.35 23.32) rotate(-8.38)"></ellipse><ellipse class="cls-1" cx="149.69" cy="29.2" rx="2.4" ry="2.3" transform="translate(-2.66 22.12) rotate(-8.38)"></ellipse><ellipse class="cls-1" cx="154.09" cy="25.1" rx="2.4" ry="2.3" transform="translate(-2.01 22.72) rotate(-8.38)"></ellipse><ellipse class="cls-1" cx="165.59" cy="11.2" rx="2.1" ry="2" transform="translate(.14 24.25) rotate(-8.38)"></ellipse><ellipse class="cls-1" cx="142.79" cy="39" rx="2.1" ry="2" transform="translate(-4.16 21.22) rotate(-8.38)"></ellipse><ellipse class="cls-1" cx="145.59" cy="33.7" rx="2.3" ry="2.2" transform="translate(-3.36 21.57) rotate(-8.38)"></ellipse><ellipse class="cls-1" cx="162.59" cy="16.5" rx="2.3" ry="2.2" transform="translate(-.67 23.87) rotate(-8.38)"></ellipse><ellipse class="cls-1" cx="143.39" cy="44.7" rx="1.8" ry="1.7" transform="translate(-4.98 21.37) rotate(-8.38)"></ellipse><circle class="cls-1" cx="165" cy="5.5" r="1.7"></circle><ellipse class="cls-1" cx="147.29" cy="49.2" rx="1.4" ry="1.3" transform="translate(-5.6 21.99) rotate(-8.38)"></ellipse><ellipse class="cls-1" cx="160.89" cy="1.3" rx="1.4" ry="1.3" transform="translate(1.53 23.46) rotate(-8.38)"></ellipse><circle class="cls-1" cx="152" cy="52.2" r="1"></circle></g><g><ellipse class="cls-2" cx="157.79" cy="55.2" rx="2.4" ry="2.3" transform="translate(-6.36 23.58) rotate(-8.38)"></ellipse><ellipse class="cls-2" cx="162.29" cy="51.1" rx="2.4" ry="2.3" transform="translate(-5.71 24.19) rotate(-8.38)"></ellipse><ellipse class="cls-2" cx="153.39" cy="59.4" rx="2.4" ry="2.3" transform="translate(-7.02 22.98) rotate(-8.38)"></ellipse><ellipse class="cls-2" cx="169.29" cy="41.5" rx="2.1" ry="2" transform="translate(-4.24 25.11) rotate(-8.38)"></ellipse><ellipse class="cls-2" cx="146.59" cy="69.2" rx="2.1" ry="2" transform="translate(-8.52 22.1) rotate(-8.38)"></ellipse><ellipse class="cls-2" cx="149.29" cy="63.9" rx="2.3" ry="2.2" transform="translate(-7.72 22.43) rotate(-8.38)"></ellipse><ellipse class="cls-2" cx="166.39" cy="46.6" rx="2.3" ry="2.2" transform="translate(-5.01 24.74) rotate(-8.38)"></ellipse><ellipse class="cls-2" cx="168.79" cy="35.7" rx="1.8" ry="1.7" transform="translate(-3.4 24.97) rotate(-8.38)"></ellipse><ellipse class="cls-2" cx="147.09" cy="75" rx="1.8" ry="1.7" transform="translate(-9.36 22.23) rotate(-8.38)"></ellipse><ellipse class="cls-2" cx="150.99" cy="79.4" rx="1.4" ry="1.3" transform="translate(-9.96 22.85) rotate(-8.38)"></ellipse><ellipse class="cls-2" cx="164.59" cy="31.4" rx="1.4" ry="1.3" transform="translate(-2.82 24.32) rotate(-8.38)"></ellipse><circle class="cls-2" cx="159.9" cy="28.2" r="1"></circle></g></g></svg>